PathFileType	4	(X/Y/Z)	C:/Users/beibeiliu/ov580/test_trc/User2\sequence.11_training_dense_right.trc
DataRate	CameraRate	NumFrames	NumMarkers	Units	OrigDataRate	OrigDataStartFrame	OrigNumFrames
120	120	18	19	mm	120	184	366
Frame#	Time	ThumbCMC			ThumbMCP			ThumbIP			ThumbTip			IndexMCP			IndexPIP			IndexTip			MiddleMCP			MiddlePIP			MiddleTip			RingMCP			RingPIP			RingTip			PinkyMCP			PinkyPIP			PinkyTip			BackHand1			BackHand2			BackHand3	
		X0	Y0	Z0	X1	Y1	Z1	X2	Y2	Z2	X3	Y3	Z3	X4	Y4	Z4	X5	Y5	Z5	X6	Y6	Z6	X7	Y7	Z7	X8	Y8	Z8	X9	Y9	Z9	X10	Y10	Z10	X11	Y11	Z11	X12	Y12	Z12	X13	Y13	Z13	X14	Y14	Z14	X15	Y15	Z15	X16	Y16	Z16	X17	Y17	Z17	X18	Y18	Z18	
183	1.525	211.083	25.3524	52.2153	220.768	45.6767	25.8888	228.829	61.0113	-4.1843	218.463	68.862	-31.3619	195.594	-15.8192	-16.5613	195.711	-14.8717	-51.1377	186.339	4.35202	-74.26	166.927	-27.2524	-18.5647	158.296	-28.1968	-55.9571	147.323	-5.7962	-83.8257	143.79	-25.7839	-14.6238	134.285	-23.2672	-44.8467	129.137	-6.15646	-69.7532	119.765	-10.9392	5.60543	107.332	-9.99172	-23.2887	101.959	1.04593	-50.7437	155.362	-19.0181	40.6375	157.478	-15.7883	76.1296	192.993	-11.8202	51.0647	
184	1.53333	211.092	23.5762	51.2186	216.48	42.4905	26.2426	222.67	60.0025	-3.623	210.351	67.4202	-26.2643	192.135	-13.7752	-19.7713	185.71	-11.5276	-52.8508	173.778	8.06911	-72.6175	160.943	-26.3285	-19.8073	149.465	-24.8582	-50.9484	137.885	-1.88479	-82.4367	139.233	-22.3295	-9.50019	129.054	-21.3276	-40.6065	117.735	-2.64654	-65.6378	118.307	-10.1861	8.37562	98.3304	-8.66969	-17.1621	89.9525	3.90582	-40.2217	153.51	-17.7669	43.2402	159.367	-18.917	74.5294	188.912	-12.0434	52.5446	
185	1.54167	204.193	22.9921	55.2085	212.511	45.2508	31.075	209.808	60.6611	0.659337	196.981	70.2631	-23.7103	181.105	-12.2673	-20.4197	174.869	-9.83895	-49.1507	156.859	14.5813	-71.1702	154.784	-25.979	-19.7918	136.799	-22.7016	-50.7623	123.622	-2.85244	-74.0441	128.263	-24.2467	-8.33457	114.961	-22.7207	-30.5204	106.359	-3.50078	-58.64	111.462	-12.4707	15.2356	90.3885	-10.1195	-11.2152	78.1297	3.32902	-29.2379	148.418	-20.6356	44.0783	155.357	-20.7653	81.5825	186.293	-13.5658	54.9379	
186	1.55	198.706	22.6498	55.8482	202.745	45.2192	28.8612	196.833	60.8361	-2.20394	182.853	70.5019	-23.3816	172.148	-12.2469	-15.7758	161.654	-9.40514	-48.6576	143.176	11.3294	-66.5682	145.568	-27.6655	-12.5732	129.101	-28.4629	-43.8727	107.583	-6.26531	-70.6117	118.514	-28.6309	-0.827203	103.526	-25.7143	-24.473	91.7895	-7.94411	-49.9526	98.6161	-19.268	22.5166	83.1809	-14.2118	-2.68626	69.1881	-2.40002	-21.6678	144.417	-23.1175	50.5617	152.651	-26.125	83.0677	180.612	-16.5675	50.612	
187	1.55833	195.531	19.7869	55.8393	195.03	40.1118	27.0413	193.356	58.8938	-1.33469	178.327	67.9295	-24.8222	162.506	-19.1433	-11.9686	153.33	-16.744	-48.1674	133.268	1.44716	-63.5106	137.609	-32.7582	-8.23295	119.548	-32.7477	-43.2336	97.6189	-13.4793	-64.5312	114.43	-32.9944	3.02504	99.657	-31.1796	-19.7943	81.7905	-12.6191	-45.4959	93.0979	-23.0533	26.7617	72.4039	-18.6726	4.48077	58.7765	-5.7031	-16.7573	138.396	-28.4816	56.1311	151.126	-28.2544	83.3753	176.724	-18.7794	52.6942	
188	1.56667	196.406	14.5309	56.6617	201.846	36.1655	28.3646	196.261	49.89	-4.84485	184.289	60.1509	-26.6641	166.273	-26.7331	-12.2817	153.04	-25.1978	-43.7004	136.157	-6.81717	-61.5657	139.336	-40.4015	-8.23491	118.828	-41.5736	-34.9379	99.7449	-19.6672	-63.7141	117.491	-35.8996	5.76399	98.7353	-36.3304	-17.5773	82.943	-18.1409	-43.2133	99.9392	-24.0195	27.3411	78.546	-22.5066	2.58243	64.5973	-9.56642	-19.7367	139.355	-28.9098	59.4128	152.057	-30.5416	84.5397	175.633	-24.5887	60.6042	
189	1.575	205.046	11.019	54.6637	208.166	28.8218	26.4837	208.557	43.552	-6.65652	194.32	50.0283	-27.8733	175.997	-31.4807	-7.5616	167.454	-32.7699	-43.1808	154.251	-13.7385	-62.4947	148.994	-46.2088	-6.91358	133.657	-47.0384	-42.1008	117.867	-29.6772	-66.3589	124.936	-41.6182	2.10752	111.894	-40.4737	-23.1008	96.5081	-23.8873	-46.0396	105.61	-26.6436	27.6335	90.6099	-25.9762	-3.57682	79.5562	-14.7244	-23.3968	143.348	-33.6158	58.8266	155.787	-31.6508	87.8747	183.629	-26.6276	60.31	
190	1.58333	211.115	8.5507	61.536	216.112	24.6141	29.312	219.869	38.4663	-1.01296	207.675	43.0402	-28.8536	190.622	-38.6454	-7.15537	183.984	-40.9528	-39.7627	170.2	-20.701	-63.4182	162.41	-49.927	-3.82183	147.579	-53.7263	-41.593	133.843	-34.7606	-69.8209	137.841	-46.638	-0.61479	126.95	-46.8115	-25.8627	115.54	-29.2462	-55.2836	120.617	-31.1889	21.0973	104.155	-32.8084	-7.79621	94.1516	-21.5647	-30.7277	149.742	-36.2762	54.8741	160.035	-32.4926	89.6981	191.963	-29.7489	62.2605	
191	1.59167	212.874	6.48522	58.6937	218.208	24.548	35.3865	226.857	38.697	-1.63353	218.294	44.5142	-24.3666	199.382	-43.8569	-7.16572	197.879	-45.6962	-37.2666	188.233	-28.0008	-60.8255	173.694	-57.7684	-7.98401	164.812	-61.0672	-39.9908	154.326	-42.3771	-71.1149	149.404	-52.9862	2.51927	142.405	-54.7836	-28.4769	135.119	-38.8892	-57.3225	125.67	-41.1356	17.3289	111.727	-41.806	-11.2919	108.714	-30.6703	-39.2374	162.08	-42.1353	54.6213	165.84	-35.3782	87.0809	193.744	-32.3133	61.3789	
192	1.6	212.322	10.2303	60.9587	218.345	31.6193	34.5795	219.485	41.255	1.44184	212.259	47.924	-23.0093	210.786	-39.346	-4.33398	205.366	-44.7673	-33.7975	192.087	-24.3401	-61.6627	183.753	-59.1869	-6.51013	178.202	-61.753	-42.2051	166.247	-45.6801	-72.4552	160.446	-59.3028	-2.33295	150.028	-62.6985	-28.0815	145.395	-45.2987	-60.198	135.563	-49.4419	12.6369	119.909	-52.4794	-14.8657	110.282	-42.6938	-37.8673	165.074	-44.3278	53.8556	169.152	-39.7668	83.4417	199.894	-30.4425	66.9884	
193	1.60833	202.215	13.4223	66.0417	205.892	34.7166	33.5395	205.455	49.9652	7.86084	195.598	52.2081	-21.257	206.834	-33.893	-1.47269	204.887	-37.9333	-34.6379	187.448	-18.8854	-60.0495	186.803	-56.2102	-6.93513	180.747	-61.1872	-38.3808	164.576	-46.943	-68.7672	160.167	-60.5301	4.2266	153.664	-64.0202	-29.1921	141.447	-50.2161	-58.365	131.435	-55.6363	19.6067	117.549	-61.0374	-12.7147	106.541	-50.5173	-36.4879	164.465	-51.0897	53.2888	165.995	-44.8621	89.3645	197.244	-28.7555	68.302	
194	1.61667	191.384	19.8279	67.7149	187.303	41.908	39.3084	181.405	55.8393	8.49963	167.772	56.8166	-13.7406	196.225	-27.5635	-5.20905	192.292	-26.3474	-36.7418	169.409	-15.0941	-55.7489	180.197	-52.8843	-6.65614	169.926	-57.4416	-39.4486	151.724	-45.1793	-67.262	156.287	-59.9548	3.19348	145.636	-64.7523	-24.4836	129.823	-53.711	-50.6025	132.706	-60.7773	17.5199	115.254	-66.6543	-3.97262	105.322	-57.9287	-29.1724	163.832	-48.7016	54.5397	168.066	-46.7774	89.2803	193.83	-25.0795	65.954	
195	1.625	172.734	22.7842	70.8369	160.266	44.2565	45.72	148.741	59.5407	20.6662	134.626	58.6733	-3.0081	185.007	-11.203	-4.3905	179.634	-8.39971	-35.364	153.16	3.05648	-55.4023	177.908	-37.754	-6.46574	167.018	-43.1941	-40.1418	142.924	-39.4704	-63.7229	153.175	-55.7047	2.29595	143.544	-58.9698	-23.9332	123.506	-48.3871	-49.4982	132.369	-63.873	19.6301	115.431	-70.412	-2.91259	101.653	-60.3655	-29.7522	164.237	-43.0703	58.448	167.471	-44.8567	89.7548	184.976	-17.3469	69.2813	
196	1.63333	152.815	26.9631	80.1479	133.321	44.6213	56.142	116.372	57.6237	32.6142	101.452	61.3177	9.58208	174.228	7.40844	-0.767862	165.251	9.94757	-29.8441	138.744	14.2522	-49.1732	173.319	-22.2051	-6.44808	163.817	-26.4176	-40.0711	136.084	-23.9954	-65.6008	159.383	-42.2489	1.77243	147.446	-49.2344	-26.558	123.711	-42.7442	-48.3531	141.175	-58.3076	18.493	124.437	-68.2566	-10.1353	108.311	-66.6841	-28.355	167.173	-43.0233	55.9981	170.361	-42.0838	92.6888	177.585	-7.98611	71.0872	
197	1.64167	134.64	24.49	88.6009	109.365	39.6676	64.1596	89.1016	50.3059	41.2397	74.1938	46.6776	22.2381	159.93	23.1118	7.82197	150.209	26.5824	-25.5174	126.825	20.8632	-41.6035	169.368	-1.51136	1.02525	163.401	-3.85536	-34.36	133.736	-10.3624	-63.2517	163.649	-26.0054	2.03696	153.999	-33.1554	-28.8958	131.641	-28.8583	-48.6068	153.322	-54.9074	18.2834	141.036	-59.6703	-14.5692	122.268	-56.5141	-31.979	169.195	-30.5628	55.8998	174.255	-31.1308	93.2493	171.298	5.71724	75.4879	
198	1.65	121.706	17.3254	91.9476	94.8941	24.2806	74.3973	70.2662	33.3355	48.9603	54.2669	31.4226	23.8137	146.377	34.3662	16.5555	137.538	36.6316	-18.6578	110.584	28.0524	-38.1272	165.904	9.87561	2.59837	156.808	15.7848	-33.2263	134.228	5.0383	-59.9982	167.345	-14.9044	4.4605	160.531	-15.5795	-28.9779	138.432	-17.6197	-47.393	165.349	-42.0702	14.2449	156.545	-49.0096	-17.5131	140.298	-50.938	-35.9221	171.676	-20.9328	59.5173	177.473	-21.2644	89.318	162.052	8.41419	80.08	
199	1.65833	111.475	9.92704	89.4969	80.4985	13.7956	71.7229	59.0801	15.362	47.3639	46.5698	10.0518	25.94	133.994	36.082	14.7221	122.241	43.363	-12.2434	104.434	25.5038	-33.7963	158.519	22.9979	5.49214	151.595	27.2524	-27.3555	132.282	9.80826	-58.2917	168.057	-2.51179	5.64638	161.79	0.0428241	-26.0036	142.131	-11.8625	-50.9473	172.621	-31.8306	15.9873	168.072	-34.5846	-19.1374	151.483	-39.3763	-39.3109	173.187	-12.9724	56.7878	176.356	-16.2279	92.9238	151.336	16.1867	82.8187	
200	1.66667	104.224	3.31232	92.6514	76.2887	2.16279	76.7285	51.2733	4.33806	48.9346	39.1777	-0.847941	26.7138	121.507	36.706	19.775	111.659	40.3846	-13.1132	95.8463	21.2008	-33.2028	150.855	27.0355	6.70943	146.136	30.9467	-26.6049	129.603	15.0138	-56.9619	165.45	5.01339	6.84855	161.526	5.11822	-25.475	142.969	-6.69535	-52.4365	174.94	-23.8948	16.2118	169.813	-23.8152	-18.0655	157.352	-31.1882	-41.2024	166.534	-3.49797	60.5918	174.676	-13.1133	95.0365	144.867	14.5834	82.444	
